<?xml version="1.0" encoding="utf-8"?>
<!-- Generator: Adobe Illustrator 26.4.1, SVG Export Plug-In . SVG Version: 6.00 Build 0)  -->
<svg version="1.1" id="Camada_1" xmlns="http://www.w3.org/2000/svg" xmlns:xlink="http://www.w3.org/1999/xlink" x="0px" y="0px"
	 viewBox="0 0 352 490" style="enable-background:new 0 0 352 490;" xml:space="preserve">
<style type="text/css">
	.st0{fill:#53B458;}
</style>
<path class="st0" d="M201.1,13.3c-12.3-17.7-37.9-17.7-50.2,0C102.3,83.4,0,239.9,0,313.1C0,411.2,78.8,490,176,490
	s176-78.8,176-176.9C352,239.9,249.7,83.4,201.1,13.3z M176,426c-61.9,0-112-50.1-112-112.9c0-7.9,7.2-16,16-16c8.8,0,16,8.1,16,16
	c0,45.1,35.8,80.9,80,80.9c8.8,0,16,7.2,16,16S184.8,426,176,426z"/>
</svg>
