<?xml version="1.0" encoding="UTF-8"?>
<svg id="Camada_1" data-name="Camada 1" xmlns="http://www.w3.org/2000/svg" viewBox="0 0 1003.22 1003.22">
  <defs>
    <style>
      .cls-1 {
        fill: #8bbbde;
      }

      .cls-1, .cls-2, .cls-3 {
        stroke-width: 0px;
      }

      .cls-2 {
        fill: #a2c9e4;
      }

      .cls-3 {
        fill: #1677bc;
      }
    </style>
  </defs>
  <path class="cls-2" d="m.11,445.44C.11,298.49.12,151.55.01,4.61,0,.85.86,0,4.62,0c331.33.1,662.66.1,993.99,0,3.76,0,4.61.85,4.61,4.61-.11,149.62-.09,299.24-.09,448.85-1.81-.14-3.12.73-4.44,1.89-11.39,10.03-23.2,19.52-35.47,28.45-7.87,5.72-15.35,11.97-23.23,17.69-6.01,4.36-12.16,8.6-18.62,12.25-5.15,2.91-8.71,8.04-14.21,10.13-7.61,2.89-13.92,8.01-21.04,11.73-13.85,7.24-27.3,15.38-41.27,22.4-17.82,8.95-36.02,17.16-54.56,24.6-22.63,9.08-45.56,17.18-68.91,24.17-33.03,9.89-66.63,17.15-100.71,22.31-8.35,1.27-16.83,1.88-25.02,4.14-1.95-.09-3.96.34-5.9-.58.59-1.77,2.28-1.93,3.54-2.55,37.67-18.32,67.22-45.52,88.9-81.32,17.93-29.61,27.61-61.87,29.58-96.26,1.47-25.66-1.65-50.89-9.57-75.55-14.35-44.66-40.58-80.78-78.64-107.69-48.17-34.06-101.88-45.9-160.07-35.39-49.21,8.88-89.82,33-122.35,70.87-24.37,28.36-39.77,61.1-46.52,97.75-5.44,29.57-4.72,59.11,2.64,88.41,11.68,46.49,36.38,84.54,73.52,114.7,11.46,9.3,24.42,16.24,36.78,24.14-2.33,2.06-5.04,1.27-7.63.91-2.96-.42-5.87-1.24-8.84-1.58-22.03-2.46-43.47-7.97-65.1-12.53-6.59-1.39-12.79-3.91-19.31-5.48-3.88-.94-8.07-1.12-11.61-2.55-10.07-4.09-20.57-6.85-30.86-10.08-32.53-10.19-63.49-24.12-94.13-38.7-18.88-8.99-37.17-19.38-55.07-30.23-21.31-12.92-42.35-26.38-62.04-41.74-15.35-11.98-30.91-23.7-45.22-36.96-2.21-2.05-4.33-4.7-7.65-5.37Z"/>
  <path class="cls-3" d="m407.56,629.75c-12.36-7.9-25.32-14.84-36.78-24.14-37.14-30.16-61.84-68.22-73.52-114.7-7.36-29.3-8.09-58.84-2.64-88.41,6.75-36.65,22.15-69.38,46.52-97.75,32.54-37.87,73.14-61.99,122.35-70.87,58.19-10.5,111.91,1.33,160.07,35.39,38.06,26.91,64.29,63.03,78.64,107.69,7.93,24.67,11.04,49.89,9.57,75.55-1.97,34.4-11.65,66.65-29.58,96.26-21.68,35.8-51.22,63-88.9,81.32-1.26.61-2.95.78-3.54,2.55,1.94.92,3.95.49,5.9.58.77.28,1.53.72,2.32.83,24.72,3.3,48.68,9.63,72.03,18.32,45.33,16.89,85.44,42.16,120.31,75.65,19.67,18.89,37.02,39.76,51.73,62.79,22.2,34.76,38.2,72.09,47.19,112.39,5.06,22.68,8.18,45.6,8.45,68.86.12,10.35.09,20.71.13,31.06H105.42c.02-3.51.14-7.02.06-10.53-.6-27.96,1.37-55.68,7.14-83.12,6.28-29.91,16.04-58.62,29.79-85.89,12.52-24.84,27.86-47.85,45.81-69.16,17.62-20.93,37.47-39.47,59.37-55.73,21.52-15.97,44.73-29.2,69.37-39.83,21.38-9.23,43.44-16.35,66.31-20.81,10.01-1.95,20.07-3.7,30.67-5.65-2.21-1.74-4.31-2.17-6.39-2.66Z"/>
  <path class="cls-1" d="m897.81,1003.12c-.04-10.35-.01-20.71-.13-31.06-.27-23.26-3.39-46.18-8.45-68.86-8.99-40.3-24.99-77.63-47.19-112.39-14.71-23.03-32.06-43.89-51.73-62.79-34.87-33.49-74.97-58.76-120.31-75.65-23.35-8.7-47.3-15.02-72.03-18.32-.8-.11-1.55-.55-2.32-.83,8.19-2.26,16.67-2.88,25.02-4.14,34.08-5.16,67.68-12.42,100.71-22.31,23.35-6.99,46.28-15.09,68.91-24.17,18.54-7.44,36.74-15.65,54.56-24.6,13.97-7.02,27.42-15.16,41.27-22.4,7.12-3.72,13.44-8.85,21.04-11.73,5.5-2.09,9.05-7.22,14.21-10.13,6.46-3.64,12.61-7.89,18.62-12.25,7.87-5.72,15.36-11.97,23.23-17.69,12.28-8.93,24.09-18.42,35.47-28.45,1.32-1.16,2.63-2.04,4.44-1.89,0,181.71-.01,363.43.09,545.14,0,3.76-.84,4.63-4.61,4.61-33.6-.17-67.2-.1-100.8-.1Z"/>
  <path class="cls-1" d="m407.56,629.75c-2.33,2.06-5.04,1.27-7.63.91-2.96-.42-5.87-1.24-8.84-1.58-22.03-2.46-43.47-7.97-65.1-12.53-6.59-1.39-12.79-3.91-19.31-5.48-3.88-.94-8.07-1.12-11.61-2.55-10.07-4.09-20.57-6.85-30.86-10.08-32.53-10.19-63.49-24.12-94.13-38.7-18.88-8.99-37.17-19.38-55.07-30.23-21.31-12.92-42.35-26.38-62.04-41.74-15.35-11.98-30.91-23.7-45.22-36.96-2.21-2.05-4.33-4.7-7.65-5.37C.11,629.85.12,814.27,0,998.69c0,3.94,1.08,4.54,4.7,4.52,33.58-.15,67.15-.09,100.73-.09.02-3.51.14-7.02.06-10.53-.6-27.96,1.37-55.68,7.14-83.12,6.28-29.91,16.04-58.62,29.79-85.89,12.52-24.84,27.86-47.85,45.81-69.16,17.62-20.93,37.47-39.47,59.37-55.73,21.52-15.97,44.73-29.2,69.37-39.83,21.38-9.23,43.44-16.35,66.31-20.81,10.01-1.95,20.07-3.7,30.67-5.65-2.21-1.74-4.31-2.17-6.39-2.66Z"/>
</svg>